<?xml version="1.0" encoding="UTF-8" standalone="no"?>
<!-- Created with Inkscape (http://www.inkscape.org/) -->

<svg
   width="66.2472mm"
   height="85.552811mm"
   viewBox="0 0 66.2472 85.552811"
   version="1.1"
   id="svg1"
   xmlns="http://www.w3.org/2000/svg"
   xmlns:svg="http://www.w3.org/2000/svg">
  <defs
     id="defs1" />
  <g
     id="layer1"
     style="display:none"
     transform="translate(-59.607418,-96.979562)">
    <rect
       style="fill:#f4d7d7;stroke:#000000;stroke-width:0.165;stroke-linejoin:round"
       id="rect28"
       width="64.977196"
       height="82.797943"
       x="60.042225"
       y="98.425385"
       ry="0" />
  </g>
  <g
     id="layer2"
     style="display:inline"
     transform="translate(-59.607418,-96.979562)">
    <path
       style="fill:#000000;stroke:#000000;stroke-width:0.165;stroke-linejoin:round"
       id="path15"
       d="m 62.665096,100.50744 c -0.816925,8.39802 -1.511295,16.80275 -1.985407,25.22705 -0.632545,10.82827 -0.777634,21.67548 -0.905806,32.51885 0.04544,4.13572 -0.218205,8.27963 0.01122,12.41286 0.08554,1.5409 0.232344,3.06417 0.368369,4.60067 0.147627,1.56724 0.307403,3.13329 0.459721,4.70007 0.06546,0.67329 0.0977,1.34154 0.25699,1.99901 0.397433,0.97607 0.86392,0.22947 1.346864,-0.0804 0.129673,-0.0832 0.270574,-0.14744 0.40586,-0.22116 8.81094,-0.78111 17.679887,-0.64289 26.518071,-0.6569 7.269538,0.13501 14.527462,-0.19932 21.783802,-0.57773 3.58288,-0.11258 7.16526,-0.50261 10.75241,-0.44188 1.23991,-0.0292 2.56768,0.45052 3.73109,-0.11506 0.10016,-0.14077 0.2461,-0.25833 0.30047,-0.42231 0.18899,-0.56991 -0.10191,-2.68205 -0.13413,-3.09573 -0.20276,-2.60335 -0.13681,-1.7372 -0.29376,-4.70283 -0.29466,-7.74361 -0.78281,-15.47898 -1.34345,-23.20739 -0.56365,-8.60694 -1.21838,-17.20763 -1.80103,-25.81312 -0.22735,-3.20551 -0.34996,-6.41542 -0.38505,-9.62825 -0.0711,-2.3584 0.0958,-4.71194 0.2312,-7.06471 0.0996,-1.88476 0.13642,-3.77183 0.15559,-5.65885 0.0209,-1.110202 0.15141,-2.064837 -0.68497,-2.904794 -0.8848,-0.519954 -1.90199,-0.278452 -2.84661,-0.07439 -0.32687,0.06275 -0.7926,0.161359 -1.11907,0.182896 -1.40788,0.09287 -2.82006,0.102587 -4.22961,0.165283 -2.01642,0.08969 -4.79717,0.244808 -6.75443,0.350104 -7.225799,0.434814 -14.460946,0.663321 -21.695327,0.896261 -4.880821,0.09229 -9.75324,0.399428 -14.628966,0.619249 -1.610566,0.07504 -3.222336,0.115266 -4.834524,0.126635 -0.8001,0.0032 -1.600208,5.29e-4 -2.400308,-0.0016 -0.561263,-0.0016 -0.563446,0.792206 -0.0021,0.793746 v 0 c 0.802696,0.002 1.605399,0.005 2.408097,0.002 1.62224,-0.0115 3.244059,-0.0519 4.864672,-0.12742 4.87232,-0.2197 9.741342,-0.526628 14.618758,-0.618854 7.240079,-0.233132 14.480929,-0.461872 21.712428,-0.896996 1.94388,-0.104581 4.73714,-0.260358 6.74249,-0.349554 1.43601,-0.06387 2.87477,-0.07422 4.30884,-0.172339 0.34313,-0.02347 0.83199,-0.12682 1.17702,-0.193199 0.68614,-0.148748 1.45192,-0.359299 2.13838,-0.11997 0.67583,0.532138 0.38855,1.57258 0.43161,2.315292 -0.019,1.8745 -0.0555,3.74906 -0.15432,5.62131 -0.13643,2.37085 -0.30374,4.7425 -0.23247,7.11899 0.0353,3.22784 0.15845,6.45273 0.38682,9.6732 0.58281,8.60676 1.2375,17.20873 1.8013,25.81694 0.56034,7.72325 1.04801,15.45348 1.34248,23.19193 0.13217,2.49403 0.2591,4.99953 0.54284,7.4805 -0.75849,0.5089 -2.45683,-0.0932 -3.34082,0.0198 -3.60546,-0.0576 -7.20571,0.32532 -10.8068,0.44285 -7.243,0.37772 -14.487546,0.71176 -21.743728,0.57665 -5.277152,0.008 -10.555425,0.006 -15.831865,0.10739 -2.674247,0.0514 -5.894903,0.12378 -8.604297,0.35004 -0.826408,0.069 -1.646362,0.20085 -2.469545,0.30127 -0.495903,0.28533 -0.4484,0.21906 -0.807738,0.53736 -0.0558,0.0494 -0.193641,0.0914 -0.158893,0.15735 0.03819,0.0725 0.170886,-0.0262 0.245645,0.007 0.100689,0.0451 0.278902,0.32634 0.126711,0.097 -0.162279,-0.60746 -0.176006,-1.25887 -0.236561,-1.88176 -0.152085,-1.56438 -0.3116,-3.12802 -0.459047,-4.69285 -0.134538,-1.5189 -0.280876,-3.03802 -0.36585,-4.56088 -0.229891,-4.11994 0.0362,-8.25081 -0.01069,-12.37325 0.128021,-10.83162 0.272767,-21.66709 0.904608,-32.48363 0.47362,-8.4172 1.16781,-16.81479 1.98392,-25.20573 0.04661,-0.55933 -0.744398,-0.625245 -0.791009,-0.0659 z" />
    <path
       style="fill:#000000;stroke:#000000;stroke-width:0.165;stroke-linejoin:round"
       id="path17"
       d="m 65.137119,112.39124 c 0.453935,-1.04168 0.878761,-2.0957 1.244677,-3.17153 0.428694,-1.12047 0.723648,-2.28363 1.094515,-3.42279 0.214598,-0.57524 0.25654,-1.19051 0.42,-1.77817 0.126912,-0.27102 0.323114,-0.48067 0.576574,-0.63886 0.03944,-0.0214 0.07888,-0.0427 0.118322,-0.0641 0.0047,0.005 0.01897,0.01 0.01405,0.0144 -0.03393,0.0314 -0.138681,-0.001 -0.131368,0.0446 0.0093,0.058 0.0619,0.0998 0.09475,0.14841 0.06205,0.0919 0.126605,0.18201 0.189907,0.27301 0.633121,0.96131 1.390145,1.83311 2.113148,2.72673 0.556683,0.76842 1.189995,1.48163 1.698005,2.28409 0.358326,0.5517 0.59263,1.16108 0.813541,1.77643 0.104675,0.35345 0.04619,0.17114 0.177448,0.54628 0.186137,0.5295 0.934966,0.26627 0.748829,-0.26324 v 0 c -0.124645,-0.35268 -0.06427,-0.16896 -0.179387,-0.55173 -0.241464,-0.6699 -0.500346,-1.33282 -0.890521,-1.93348 -0.52699,-0.82636 -1.172401,-1.56745 -1.750844,-2.35761 -0.710959,-0.87873 -1.456211,-1.73549 -2.078683,-2.68083 -0.362847,-0.52127 -0.678677,-1.0712 -1.377899,-0.62312 -0.402437,0.27839 -0.729086,0.62022 -0.900989,1.08777 -0.158353,0.57716 -0.207473,1.17761 -0.40967,1.74381 -0.369543,1.13605 -0.664191,2.29573 -1.091313,3.41316 -0.360403,1.06287 -0.78267,2.10285 -1.230067,3.13199 -0.208449,0.52113 0.528529,0.81592 0.736978,0.2948 z" />
    <path
       style="fill:#000000;stroke:#000000;stroke-width:0.165;stroke-linejoin:round"
       id="path18"
       d="m 66.029265,107.59555 c 0.961768,0 1.923534,0 2.885302,0 0.377291,0 0.754584,0 1.131875,0 0.561266,0 0.561266,-0.79375 0,-0.79375 v 0 c -0.377291,0 -0.754584,0 -1.131875,0 -0.961768,0 -1.923534,0 -2.885302,0 -0.561266,0 -0.561266,0.79375 0,0.79375 z" />
    <path
       style="fill:#000000;stroke:#000000;stroke-width:0.165;stroke-linejoin:round"
       id="path19"
       d="m 106.54412,110.14323 c 0.27624,-0.75689 0.46593,-1.54002 0.72318,-2.30274 0.28287,-0.56217 0.63583,-1.08213 0.9197,-1.64412 0.26144,-0.5761 0.6251,-1.09812 0.99879,-1.60591 0.4138,-0.50045 0.76916,-1.05247 1.21517,-1.52558 0.14827,-0.16815 0.29728,-0.34937 0.48052,-0.48264 0.0172,-0.0125 0.067,-0.0428 0.0596,-0.0228 -0.0216,0.0582 -0.10916,0.0592 -0.15318,0.0663 0.46727,0.73618 0.99468,1.43366 1.50473,2.1411 0.89952,1.24232 1.73534,2.53175 2.48229,3.87151 0.0646,0.13378 0.12922,0.26757 0.19383,0.40135 0.24485,0.50504 0.95909,0.15878 0.71425,-0.34626 v 0 c -0.0716,-0.1473 -0.14331,-0.2946 -0.21496,-0.44189 -0.76295,-1.36589 -1.61339,-2.68219 -2.53156,-3.94893 -0.38534,-0.53445 -0.78623,-1.06113 -1.15738,-1.60568 -0.0705,-0.10349 -0.27119,-0.44079 -0.36895,-0.55389 -0.0609,-0.0704 -0.13546,-0.12762 -0.20319,-0.19143 -0.10571,-0.0442 -0.20353,-0.11763 -0.31713,-0.13265 -0.46788,-0.0619 -0.79612,0.41232 -1.07014,0.70545 -0.46118,0.50117 -0.84661,1.06628 -1.27355,1.59611 -0.39904,0.54381 -0.78691,1.10288 -1.06791,1.71857 -0.29971,0.59568 -0.68825,1.13953 -0.96314,1.74804 -0.25704,0.76374 -0.44847,1.54713 -0.724,2.30516 -0.17749,0.53246 0.57553,0.78347 0.75302,0.25101 z" />
    <path
       style="fill:#000000;stroke:#000000;stroke-width:0.165;stroke-linejoin:round"
       id="path20"
       d="m 107.91098,106.22473 c 0.7552,0 1.51039,0 2.26557,0 0.63464,0 1.26928,0 1.90391,0 0.56127,0 0.56127,-0.79375 0,-0.79375 v 0 c -0.63463,0 -1.26927,0 -1.90391,0 -0.75518,0 -1.51037,0 -2.26557,0 -0.56126,0 -0.56126,0.79375 0,0.79375 z" />
    <path
       style="fill:#000000;stroke:#000000;stroke-width:0.165;stroke-linejoin:round"
       id="path21"
       d="m 64.314622,176.54595 c 0.377754,-1.09044 0.756478,-2.18148 1.138767,-3.27084 0.484693,-1.35227 0.951825,-2.7095 1.446726,-4.05784 0.310612,-0.82673 0.510894,-1.71555 1.00784,-2.45656 -0.06171,-0.0287 0.514681,-0.47482 0.446971,-0.2981 -0.0423,0.11042 -0.07889,-0.0865 -0.01913,0.10253 0.503023,1.34288 1.264097,2.57336 1.974183,3.81447 0.495321,0.90173 1.138679,1.70629 1.734399,2.5407 0.251145,0.3337 0.467778,0.69158 0.69459,1.04194 0.305011,0.47115 0.971325,0.0398 0.666313,-0.43135 v 0 c -0.23341,-0.36055 -0.456962,-0.72848 -0.715121,-1.07211 -0.581007,-0.81219 -1.207524,-1.59592 -1.69123,-2.47336 -0.734907,-1.28442 -1.482063,-2.56626 -2.055238,-3.93069 -0.08695,-0.0883 -0.157226,-0.19698 -0.260845,-0.26499 -0.559821,-0.36745 -1.101135,0.12584 -1.438833,0.53597 -0.516485,0.80235 -0.777015,1.72282 -1.089046,2.61808 -0.496107,1.35191 -0.964698,2.71263 -1.450544,4.06848 -0.378521,1.07862 -0.754123,2.15873 -1.126776,3.23888 -0.208449,0.52112 0.528529,0.81591 0.736978,0.29479 z" />
    <path
       style="fill:#000000;stroke:#000000;stroke-width:0.165;stroke-linejoin:round"
       id="path22"
       d="m 66.659616,171.44024 c 1.190244,-0.10992 2.378091,-0.2415 3.570028,-0.33278 0.280972,-0.0179 0.561944,-0.0358 0.842918,-0.0537 0.560126,-0.0357 0.50959,-0.82788 -0.05054,-0.79214 v 0 c -0.284367,0.0181 -0.568733,0.0363 -0.853096,0.0545 -1.204516,0.0926 -2.404997,0.22483 -3.607766,0.33659 -0.556932,0.0696 -0.458481,0.85723 0.09845,0.78762 z" />
    <path
       style="fill:#000000;stroke:#000000;stroke-width:0.165;stroke-linejoin:round"
       id="path23"
       d="m 110.11336,174.797 c 0.40243,-1.272 0.81312,-2.54314 1.25911,-3.80067 0.36572,-0.84501 0.60925,-1.73426 0.9363,-2.59337 0.21048,-0.62968 0.599,-1.05082 1.08095,-1.481 0.0504,-0.0433 0.30154,-0.27636 0.4043,-0.31278 0.0292,-0.0103 -0.0369,0.0568 -0.0316,0.0872 0.0179,0.10391 0.12589,0.16921 0.18714,0.25503 1.13799,1.51417 2.2198,3.07152 3.28579,4.63735 0.59859,0.9353 1.26929,1.8248 1.85593,2.76754 0.0415,0.0827 0.0829,0.16546 0.12438,0.2482 0.25422,0.50039 0.96188,0.14087 0.70766,-0.35953 v 0 c -0.0529,-0.10296 -0.10576,-0.20592 -0.15864,-0.30888 -0.59451,-0.95036 -1.26656,-1.85129 -1.87321,-2.79404 -1.07417,-1.57764 -2.1643,-3.14667 -3.311,-4.67229 -0.56638,-0.71325 -1.04468,-0.79231 -1.71979,-0.13957 -0.57265,0.51285 -1.0387,1.04986 -1.29401,1.79113 -0.32734,0.86533 -0.57623,1.75866 -0.94233,2.60983 -0.45087,1.27329 -0.8679,2.55966 -1.27416,3.84774 -0.15419,0.53968 0.60902,0.75773 0.76321,0.21806 z" />
    <path
       style="fill:#000000;stroke:#000000;stroke-width:0.165;stroke-linejoin:round"
       id="path24"
       d="m 111.00464,171.70976 c 0.72431,-0.17671 1.40227,-0.48582 2.09974,-0.7408 0.65752,-0.20481 1.34557,-0.25749 2.01854,-0.39133 0.27889,-0.0595 0.5613,-0.0969 0.84401,-0.13196 0.55695,-0.0694 0.45877,-0.85708 -0.0982,-0.78766 v 0 c -0.30166,0.0378 -0.60308,0.0779 -0.90075,0.14114 -0.71277,0.14197 -1.44298,0.19459 -2.13657,0.42447 -0.65922,0.2418 -1.30001,0.53306 -1.98245,0.70781 -0.55037,0.11007 -0.3947,0.8884 0.15567,0.77833 z" />
  </g>
  <g
     id="g35"
     style="display:none"
     transform="translate(-59.607418,-96.979562)">
    <g
       id="layer3"
       style="fill:#000000">
      <path
         style="fill:#000000;stroke:#000000;stroke-width:0.165;stroke-linejoin:round"
         id="path29"
         d="m 59.130824,99.735287 c 0.260133,4.995153 0.316454,9.997623 0.441116,14.997273 0.149883,5.71767 0.199651,11.43607 0.474649,17.14943 0.219863,3.68155 0.330864,7.36777 0.389406,11.055 0.0019,2.55314 0.04767,5.10339 0.160972,7.65392 0.09841,1.83464 0.120195,3.67184 0.136792,5.50865 0.01111,1.5803 0.01042,3.16066 0.01,4.741 -0.02027,1.41537 0.039,2.83283 -0.0338,4.24684 -0.110368,1.27859 -0.172241,2.56001 -0.211105,3.84253 -0.02755,1.0642 -0.03115,2.12883 -0.03284,3.19333 -5.29e-4,0.6442 5.29e-4,1.2884 0.0013,1.93259 5.29e-4,0.54661 5.29e-4,1.09321 5.29e-4,1.63982 3.2e-5,0.54672 2.1e-5,1.09344 1.6e-5,1.64016 -5e-6,0.78625 -5e-6,1.5725 -8e-6,2.35875 0,0.9825 0,1.96499 0,2.94749 0,0.56126 0.79375,0.56126 0.79375,0 v 0 c 0,-0.9825 0,-1.96499 0,-2.94749 3e-6,-0.78624 3e-6,-1.57249 8e-6,-2.35874 5e-6,-0.54675 1.6e-5,-1.0935 -1.6e-5,-1.64025 -5.3e-5,-0.54682 -1.35e-4,-1.09363 -5.29e-4,-1.64044 -5.29e-4,-0.64355 -0.0016,-1.28709 -0.0013,-1.93063 0.0016,-1.05692 0.0052,-2.11395 0.03248,-3.17057 0.03863,-1.27715 0.100814,-2.55313 0.210449,-3.82637 0.07128,-1.4275 0.01678,-2.85799 0.03481,-4.28681 5.29e-4,-1.5828 0.0011,-3.16562 -0.01003,-4.74839 -0.01669,-1.84616 -0.03872,-3.69271 -0.137543,-5.5367 -0.11299,-2.54299 -0.158367,-5.08569 -0.16029,-7.6313 -0.05872,-3.69574 -0.169913,-7.39049 -0.390223,-11.08055 -0.274775,-5.70723 -0.324014,-11.41952 -0.473978,-17.13105 -0.124978,-5.01192 -0.181321,-10.02668 -0.442886,-15.034045 -0.03999,-0.55984 -0.83172,-0.503288 -0.791734,0.05655 z" />
      <path
         style="fill:#000000;stroke:#000000;stroke-width:0.165;stroke-linejoin:round"
         id="path30"
         d="m 123.80006,98.139413 c 0,2.906857 0,5.813707 0,8.720557 0,3.96635 0,7.9327 0,11.89905 0.0404,2.45968 -0.0307,4.91623 -0.12387,7.37364 -0.11468,3.41646 -0.12679,6.83515 -0.14123,10.25315 -0.0131,4.41121 -0.0112,8.82245 -0.0108,13.23367 2.6e-4,2.3599 0.001,4.7198 0.002,7.0797 2.4e-4,1.13533 2.5e-4,2.27065 2.7e-4,3.40598 0,1.08448 -1e-5,2.16896 -1e-5,3.25344 0,0.94847 0,1.89694 0,2.84541 0,0.76897 0,1.53793 0,2.30689 0,0.61601 0,1.23201 0,1.84802 0,0.77665 0,1.5533 0,2.32995 0,0.62821 0,1.25642 0,1.88463 -0.0357,0.80677 0.10643,1.6014 0.24957,2.39144 0.14506,0.74746 0.234,1.50306 0.27806,2.26269 0.003,0.37513 -0.16944,0.40857 -0.48738,0.46922 -0.41554,0.0369 -0.85086,0.1134 -1.24753,-0.0441 -1.21567,-0.51322 -2.59497,-0.57965 -3.89286,-0.75314 -2.50556,-0.32126 -5.0249,-0.50755 -7.54538,-0.66147 -2.33028,-0.21198 -4.66082,-0.0293 -6.98654,0.13495 -2.06945,0.12694 -4.121327,0.42894 -6.185945,0.61019 -1.921462,0.0879 -3.825425,0.33949 -5.724384,0.63486 -2.099123,0.38485 -4.205754,0.68927 -6.333959,0.84616 -1.824484,0.14681 -3.651358,0.25332 -5.475755,0.40086 -1.917087,0.13524 -3.83829,0.19203 -5.759514,0.22088 -1.323705,0.0157 -2.647513,0.0181 -3.971292,0.0173 -0.912405,-0.001 -1.824808,-0.002 -2.737213,-0.002 -0.828363,-2.6e-4 -1.656728,-2.6e-4 -2.485091,-5.3e-4 -0.638217,0.009 -1.277361,-0.0275 -1.913088,0.0349 -0.611629,0.0953 -1.225204,0.16957 -1.842932,0.20922 -0.09302,0.004 -0.186036,0.008 -0.279053,0.0127 -0.560678,0.0257 -0.524388,0.81858 0.03629,0.79291 v 0 c 0.09795,-0.004 0.195908,-0.009 0.29386,-0.0135 0.628065,-0.0407 1.252373,-0.11363 1.874123,-0.21184 0.607023,-0.068 1.220962,-0.0127 1.830776,-0.0307 0.828252,3e-5 1.656504,8e-5 2.484755,5.3e-4 0.912374,5.3e-4 1.824744,0.001 2.737118,0.002 1.327906,7.9e-4 2.655842,-0.002 3.983675,-0.0174 1.938596,-0.0291 3.877172,-0.0866 5.81157,-0.22337 1.822548,-0.14739 3.647577,-0.25371 5.470207,-0.40042 2.149459,-0.15888 4.27754,-0.46445 6.397617,-0.85347 1.881479,-0.29314 3.767897,-0.54171 5.671757,-0.62845 2.060098,-0.18111 4.107568,-0.48157 6.172408,-0.60912 2.29103,-0.16186 4.58668,-0.34429 6.88224,-0.13445 2.5015,0.15269 5.00188,0.33734 7.4886,0.65595 1.8435,0.24632 0.24867,0.029 1.7879,0.24856 0.66134,0.0944 1.3487,0.14745 1.94911,0.46744 0.54927,0.17741 1.11042,0.15695 1.67862,0.0698 0.73032,-0.17253 1.10187,-0.50054 1.10969,-1.29076 -0.0464,-0.79156 -0.13841,-1.57906 -0.28943,-2.358 -0.13475,-0.74345 -0.27287,-1.4905 -0.23685,-2.24991 0,-0.62821 0,-1.25642 0,-1.88463 0,-0.77665 0,-1.5533 0,-2.32995 0,-0.616 0,-1.23201 0,-1.84801 0,-0.76897 0,-1.53793 0,-2.30689 0,-0.94847 0,-1.89694 0,-2.84541 0,-1.08448 10e-6,-2.16897 10e-6,-3.25346 -2e-5,-1.13538 -3e-5,-2.27076 -2.7e-4,-3.40614 -5.3e-4,-2.35986 -10e-4,-4.71973 -0.002,-7.07959 -2.7e-4,-4.41009 -0.002,-8.82018 0.0108,-13.23025 0.0144,-3.40909 0.0264,-6.81887 0.14067,-10.22642 0.0936,-2.46743 0.16481,-4.93402 0.12444,-7.40373 0,-3.96634 0,-7.93269 0,-11.89904 0,-2.90685 0,-5.81371 0,-8.720562 0,-0.561266 -0.79375,-0.561266 -0.79375,0 z" />
      <path
         style="fill:#000000;stroke:#000000;stroke-width:0.165;stroke-linejoin:round"
         id="path31"
         d="m 59.207926,98.27393 c 2.781541,-0.04461 5.554456,0.239101 8.321664,0.484864 3.932137,0.442815 7.876873,0.741273 11.827264,0.958083 2.933295,0.158925 5.870937,0.191537 8.807802,0.206378 2.579237,0.0068 5.158486,0.0013 7.737726,-7.94e-4 2.172959,-0.0021 4.345918,-0.0029 6.518888,-0.0033 2.45766,0.01558 4.91364,0.0032 7.37001,-0.07848 1.95706,-0.08087 3.91593,-0.09387 5.8683,-0.257561 1.05048,-0.09047 2.10256,-0.16038 3.15631,-0.196887 0.65569,0.01749 1.27462,-0.01585 1.89247,-0.245743 0.50108,-0.245284 0.97135,-0.546065 1.46496,-0.805177 0.42655,-0.187079 0.90079,-0.326485 1.37034,-0.286689 0.34635,0.04958 0.66778,0.20551 0.99872,0.315177 0.53305,0.175702 0.78153,-0.578154 0.24848,-0.753856 v 0 c -0.39773,-0.130271 -0.78308,-0.319546 -1.20538,-0.353968 -0.61686,-0.02135 -1.22437,0.108421 -1.78212,0.377076 -0.4641,0.245264 -0.91105,0.520481 -1.37559,0.764937 -0.5334,0.20565 -1.07133,0.201568 -1.63941,0.194972 -1.0667,0.03708 -2.13174,0.107532 -3.19515,0.199189 -1.93902,0.162819 -3.88465,0.174077 -5.82833,0.255219 -2.44761,0.08148 -4.89484,0.09351 -7.34374,0.07804 -2.17316,2.65e-4 -4.346325,0.0011 -6.519483,0.0033 -2.577663,0.0024 -5.155335,0.0077 -7.732993,7.94e-4 -2.923696,-0.01476 -5.848175,-0.04704 -8.768323,-0.205195 -3.94148,-0.216231 -7.87727,-0.514363 -11.800533,-0.956165 -2.79055,-0.247824 -5.586886,-0.532651 -8.391882,-0.487976 -0.561269,0 -0.561269,0.79375 0,0.79375 z" />
      <path
         style="fill:#000000;stroke:#000000;stroke-width:0.165;stroke-linejoin:round"
         id="path32"
         d="m 64.022263,108.12812 c 0.420836,-0.5095 0.917794,-0.94656 1.356505,-1.44181 0.483786,-0.46626 1.087774,-0.7309 1.72964,-0.89429 0.572145,-0.13497 0.549023,0.0834 0.676775,0.55595 0.09349,0.58006 0.133988,1.18149 0.06774,1.76648 -0.092,0.64213 -0.383503,1.23911 -0.634143,1.8325 -0.344276,1.02365 -0.661257,2.05834 -1.069261,3.05884 -0.222977,0.51783 -0.723606,1.54264 0.0886,1.85649 0.127397,0.0492 0.272754,0.0148 0.409131,0.0222 0.138924,-0.0523 0.282501,-0.0937 0.416774,-0.15697 0.155027,-0.0731 0.291502,-0.18281 0.448699,-0.25112 1.442617,-0.62682 3.001555,-1.02148 4.514244,-1.43455 0.541427,-0.14792 0.332248,-0.91361 -0.209177,-0.76569 v 0 c -1.579735,0.43174 -3.189311,0.85594 -4.696013,1.50945 -0.191667,0.0831 -0.356161,0.22019 -0.545674,0.30833 0.08229,0.3044 -0.02934,0.18008 0.0026,0.0288 0.04672,-0.22084 0.229849,-0.63281 0.306006,-0.81794 0.404974,-0.9979 0.728364,-2.02671 1.065234,-3.04912 0.281133,-0.66581 0.600496,-1.33615 0.692433,-2.05935 0.06649,-0.68758 0.03769,-1.39072 -0.09485,-2.0693 -0.262896,-0.86835 -0.670005,-1.34088 -1.638485,-1.10341 -0.793742,0.20907 -1.536534,0.54665 -2.124681,1.13651 -0.45243,0.51151 -0.970275,0.95854 -1.397156,1.49167 -0.336762,0.44901 0.298238,0.92526 0.635,0.47625 z" />
      <path
         style="fill:#000000;stroke:#000000;stroke-width:0.165;stroke-linejoin:round"
         id="path33"
         d="m 113.19796,104.8134 c 0.7038,-0.11927 1.38098,-0.35187 2.06806,-0.53974 0.56111,-0.12816 1.14207,-0.25396 1.72001,-0.20274 0.56945,0.10857 1.06042,0.36043 1.37712,0.85144 0.0546,0.12582 0.12183,0.22615 0.10426,0.36917 -0.0432,0.3513 -0.50159,0.88924 -0.70458,1.15364 -0.70513,0.83133 -1.55621,1.52299 -2.36808,2.24601 -0.65433,0.56991 -1.21172,1.23912 -1.78809,1.88512 -0.31742,0.39915 -0.80364,0.98088 -0.0316,1.34789 0.17632,0.0838 0.96303,-0.12407 1.1355,-0.16319 1.05171,-0.23592 2.09587,-0.507 3.1549,-0.70911 0.30779,-0.0626 0.61918,-0.10032 0.93118,-0.13313 0.55814,-0.0592 0.47441,-0.84853 -0.0837,-0.78932 v 0 c -0.33382,0.0357 -0.66709,0.076 -0.99648,0.14281 -1.06823,0.20452 -2.1219,0.47625 -3.18272,0.71495 -0.14357,0.0331 -0.65931,0.12999 -0.67496,0.19566 -0.0306,0.12823 0.0455,0.25974 0.0729,0.38869 0.004,0.021 -0.0115,-0.044 -0.004,-0.0641 0.0563,-0.15281 0.17463,-0.27797 0.2714,-0.40268 0.55615,-0.62335 1.09288,-1.27033 1.72372,-1.82079 0.85003,-0.75703 1.74083,-1.48179 2.47226,-2.35866 0.54837,-0.72849 1.15467,-1.54628 0.62251,-2.45233 -0.48153,-0.67511 -1.14933,-1.06831 -1.97485,-1.19377 -0.67003,-0.0401 -1.33658,0.0644 -1.98615,0.2289 -0.66915,0.18341 -1.3287,0.41073 -2.01413,0.52698 -0.55037,0.11007 -0.3947,0.88841 0.15567,0.77834 z" />
      <path
         style="fill:#000000;stroke:#000000;stroke-width:0.165;stroke-linejoin:round"
         id="path34"
         d="m 64.396516,170.6131 c 0.605036,-0.19992 1.222547,-0.34347 1.853165,-0.43113 0.571598,-0.0807 0.725668,-0.11468 0.99518,0.40127 0.265166,0.69791 0.338519,1.4308 0.12304,2.14656 -0.219628,0.67393 -0.628576,1.20511 -1.097603,1.72065 -0.521221,0.54491 -1.063866,1.06877 -1.60133,1.59752 -0.307787,0.34266 -0.74626,0.7891 -0.06496,1.14823 0.1411,0.0744 0.558882,-0.13822 0.683016,-0.19257 1.197994,-0.5187 2.482538,-0.76829 3.767701,-0.95169 0.845236,-0.11792 1.69753,-0.16493 2.549814,-0.18968 0.561028,-0.0163 0.537887,-0.80977 -0.02315,-0.79341 v 0 c -0.882182,0.0258 -1.76434,0.0751 -2.63919,0.19736 -1.357574,0.19505 -2.713564,0.46231 -3.978264,1.0124 -0.07394,0.0337 -0.160732,0.0476 -0.221835,0.10117 -0.01778,0.0156 0.04157,0.026 0.05377,0.0462 0.08285,0.13742 0.177895,0.27128 0.229275,0.4233 0.01101,0.0326 -0.07804,0.11318 -0.05719,0.0858 0.02856,-0.0375 0.05089,-0.0795 0.08036,-0.11623 0.05654,-0.0705 0.118205,-0.13673 0.177308,-0.2051 0.54806,-0.53917 1.101545,-1.07325 1.632241,-1.62969 0.550291,-0.60683 1.02122,-1.24598 1.273765,-2.0381 0.252028,-0.93206 0.185081,-1.87412 -0.203108,-2.76605 -0.478242,-0.76104 -0.912728,-0.92838 -1.788953,-0.78407 -0.645115,0.091 -1.281079,0.22821 -1.898727,0.43887 -0.550365,0.11008 -0.394698,0.88841 0.155667,0.77834 z" />
      <path
         style="fill:#000000;stroke:#000000;stroke-width:0.165;stroke-linejoin:round"
         id="path35"
         d="m 113.39023,169.41765 c 0.43079,-0.67229 0.9463,-1.29377 1.55656,-1.80918 0.46073,-0.39499 0.74017,-0.31062 1.20803,0.0181 0.43936,0.42172 0.43448,1.05329 0.41667,1.61996 -0.15806,0.92212 -0.83094,1.68128 -1.42805,2.36873 -0.48012,0.59745 -1.08006,1.06651 -1.64277,1.57695 -0.71426,0.79084 -0.45195,1.39305 0.61959,1.44613 1.05977,-0.22183 2.13717,-0.28514 3.21635,-0.34203 0.92051,-0.0382 0.47316,-0.0218 1.34203,-0.0501 0.56096,-0.0183 0.53506,-0.81165 -0.0259,-0.79333 v 0 c -0.87888,0.0287 -0.42622,0.012 -1.35796,0.0508 -1.05578,0.0558 -2.11948,0.0954 -3.15229,0.34124 -0.28742,0.003 -0.17268,-0.0277 -0.23077,0.18099 -0.0426,0.15292 -0.0558,-0.17742 0.12386,-0.24722 0.58214,-0.53444 1.21008,-1.01993 1.70757,-1.64341 0.71784,-0.8292 1.48143,-1.74215 1.6218,-2.86687 0.0208,-0.85594 -0.0676,-1.72418 -0.77442,-2.3053 -0.77648,-0.48891 -1.42004,-0.58664 -2.15876,0.0414 -0.701,0.6026 -1.31447,1.31671 -1.7785,2.11835 -0.20845,0.52112 0.52852,0.81591 0.73697,0.29479 z" />
    </g>
  </g>
</svg>
