<?xml version="1.0" encoding="UTF-8" standalone="no"?>
<!-- Created with Inkscape (http://www.inkscape.org/) -->

<svg
   width="14.796262mm"
   height="25.856804mm"
   viewBox="0 0 14.796262 25.856804"
   version="1.1"
   id="svg1"
   xmlns="http://www.w3.org/2000/svg"
   xmlns:svg="http://www.w3.org/2000/svg">
  <defs
     id="defs1" />
  <g
     id="layer1"
     transform="translate(-80.293096,-90.074141)">
    <path
       style="fill:#d1e4c1;stroke:#000000;stroke-width:0.165;stroke-linejoin:round"
       id="path2"
       d="m 80.889154,90.491489 c -0.01196,0.324263 -0.02199,0.648599 -0.03589,0.972785 -0.09298,2.169488 -0.05994,1.002163 -0.157027,3.517017 -0.09419,2.439812 -0.156541,4.880517 -0.218366,7.321299 -0.07644,2.77358 -0.116163,5.54734 -0.09785,8.32184 0.0072,1.0425 0.02283,2.08491 0.03326,3.12738 0.0039,0.41765 0.0044,0.83531 0.0046,1.25298 0.02297,0.22488 0.01228,0.54297 0.121391,0.74832 0.01593,0.03 0.04176,0.0535 0.06263,0.0803 0.09722,0.005 0.194508,0.0194 0.291669,0.0136 0.12519,-0.007 1.182301,-0.14199 1.23952,-0.14877 1.011642,-0.11992 2.024864,-0.22202 3.03866,-0.32164 1.998379,-0.18611 4.002569,-0.29374 6.008208,-0.3577 0.718638,-0.0165 1.437479,-0.0509 2.15527,-0.002 0.280082,0.0229 0.558009,0.0659 0.837237,0.0962 0.01929,0.002 0.312843,0.0367 0.354565,0.0102 0.06835,-0.0434 0.102124,-0.12571 0.153183,-0.18857 0.03335,-0.17767 0.07436,-0.35407 0.100042,-0.533 0.03387,-0.23594 0.05483,-0.47357 0.07848,-0.71075 0.03129,-0.31376 0.06697,-0.62728 0.08633,-0.942 0.101346,-1.64793 0.05285,-3.29914 0.02941,-4.94847 -0.07177,-3.26568 -0.189913,-6.53011 -0.273931,-9.795523 -0.04396,-1.27929 -0.09142,-2.558376 -0.120854,-3.838107 -0.01162,-0.433454 -0.01243,-0.867037 -0.01251,-1.30061 -0.0075,-0.413586 0.0067,-0.826314 0.03204,-1.239041 -0.0042,-0.08058 0.03931,-0.308271 -0.0028,-0.384582 -0.02564,-0.04646 -0.0603,-0.09223 -0.106508,-0.118319 -0.177363,-0.100118 -0.585414,-0.192778 -0.757454,-0.238694 -1.067776,-0.27451 -2.169157,-0.357071 -3.264657,-0.439195 -0.922663,-0.06917 -1.543875,-0.101174 -2.459699,-0.153921 -1.439947,-0.07304 -2.881796,-0.144439 -4.324037,-0.135041 -0.442646,-0.0059 -0.881267,0.04697 -1.321345,0.08254 -0.298649,0.01667 -0.595871,0.03564 -0.892146,0.07691 -0.153932,0.01852 -0.302305,0.06424 -0.455539,0.08756 -0.0699,0.01069 -0.05479,0.109532 0.01511,0.09885 v 0 c 0.152792,-0.02344 0.300855,-0.06828 0.454231,-0.08737 0.294368,-0.04101 0.58968,-0.05964 0.886407,-0.07628 0.437616,-0.03539 0.873766,-0.08811 1.313942,-0.08222 1.440104,-0.0095 2.879818,0.06204 4.317633,0.134879 0.915807,0.05275 1.53449,0.08461 2.457161,0.153741 1.089605,0.08164 2.185117,0.163336 3.247202,0.436169 0.08438,0.02244 0.714002,0.1501 0.790692,0.274404 0.04779,0.07747 -0.0081,0.28407 0.0021,0.364424 -0.02551,0.414774 -0.03969,0.829559 -0.03223,1.245198 7.4e-5,0.434332 7.94e-4,0.868675 0.01254,1.302893 0.02944,1.279821 0.07689,2.558997 0.120859,3.838379 0.08401,3.265026 0.202134,6.529076 0.27391,9.794366 0.03354,2.35821 0.127698,4.74156 -0.276728,7.07622 -0.02529,0.0484 -0.03122,0.11382 -0.07589,0.14528 -0.03735,0.0263 -0.329199,-0.009 -0.337028,-0.01 -0.281083,-0.0306 -0.560859,-0.0738 -0.842815,-0.0968 -0.721132,-0.049 -1.443278,-0.0152 -2.165257,0.002 -2.007841,0.064 -4.014229,0.1718 -6.014799,0.35813 -1.496362,0.14705 -2.990446,0.31196 -4.483092,0.49244 -0.156147,-0.17203 -0.138573,-0.5455 -0.161002,-0.76479 -1.83e-4,-0.41798 -7.94e-4,-0.83597 -0.0046,-1.25393 -0.01042,-1.04235 -0.02601,-2.08466 -0.03325,-3.12704 -0.01831,-2.77344 0.02141,-5.54613 0.09782,-8.31865 0.06181,-2.44019 0.124143,-4.880301 0.218305,-7.319522 0.09716,-2.516743 0.06399,-1.345864 0.157052,-3.517638 0.01392,-0.324654 0.02397,-0.649464 0.03594,-0.974198 0.0016,-0.07069 -0.09837,-0.07296 -0.09998,-0.0024 z" />
  </g>
</svg>
